<svg xmlns="http://www.w3.org/2000/svg" viewBox="0 0 48 48"><defs><radialGradient id="wRxYF6e_M9jEruJ875N~Ya" cx="14.16" cy="34.77" r="7.27" gradientTransform="translate(19)" gradientUnits="userSpaceOnUse"><stop offset="0" stop-color="#f12d2d"></stop><stop offset=".22" stop-color="#ed2c2c"></stop><stop offset=".44" stop-color="#e12a2a"></stop><stop offset=".66" stop-color="#cc2626"></stop><stop offset=".89" stop-color="#b02021"></stop><stop offset=".98" stop-color="#a11d1e"></stop></radialGradient><linearGradient id="wRxYF6e_M9jEruJ875N~Yb" x1="19.65" x2="17.51" y1="31.31" y2="44.2" gradientTransform="translate(19)" gradientUnits="userSpaceOnUse"><stop offset="0" stop-color="#ffc9c9" stop-opacity=".5"></stop><stop offset="0" stop-color="#ffc9c9" stop-opacity=".5"></stop><stop offset=".22" stop-color="#ffc9c9" stop-opacity=".66"></stop><stop offset=".4" stop-color="#ffc9c9" stop-opacity=".76"></stop><stop offset=".5" stop-color="#ffc9c9" stop-opacity=".8"></stop><stop offset=".57" stop-color="#ffc9c9" stop-opacity=".78"></stop><stop offset=".65" stop-color="#ffc9c9" stop-opacity=".71"></stop><stop offset=".75" stop-color="#ffc9c9" stop-opacity=".61"></stop><stop offset=".85" stop-color="#ffc9c9" stop-opacity=".47"></stop><stop offset=".96" stop-color="#ffc9c9" stop-opacity=".28"></stop><stop offset="1" stop-color="#ffc9c9" stop-opacity=".2"></stop></linearGradient><linearGradient id="wRxYF6e_M9jEruJ875N~Yc" x1="17.15" x2="14.4" y1="31.14" y2="43.74" gradientTransform="translate(19)" gradientUnits="userSpaceOnUse"><stop offset="0" stop-color="#ffc9c9" stop-opacity=".7"></stop><stop offset=".13" stop-color="#ffc9c9" stop-opacity=".76"></stop><stop offset=".37" stop-color="#ffc9c9" stop-opacity=".91"></stop><stop offset=".5" stop-color="#ffc9c9"></stop><stop offset=".56" stop-color="#ffc9c9" stop-opacity=".94"></stop><stop offset=".68" stop-color="#ffc9c9" stop-opacity=".79"></stop><stop offset=".85" stop-color="#ffc9c9" stop-opacity=".55"></stop><stop offset="1" stop-color="#ffc9c9" stop-opacity=".3"></stop></linearGradient><radialGradient id="wRxYF6e_M9jEruJ875N~Yd" cx="14.58" cy="34.34" r="10.17" gradientTransform="translate(19)" gradientUnits="userSpaceOnUse"><stop offset="0" stop-color="#ffc9c9" stop-opacity=".7"></stop><stop offset=".01" stop-color="#ffc9c9" stop-opacity=".68"></stop><stop offset=".19" stop-color="#ffc9c9" stop-opacity=".44"></stop><stop offset=".34" stop-color="#ffc9c9" stop-opacity=".25"></stop><stop offset=".48" stop-color="#ffc9c9" stop-opacity=".11"></stop><stop offset=".59" stop-color="#ffc9c9" stop-opacity=".03"></stop><stop offset=".67" stop-color="#ffc9c9" stop-opacity="0"></stop><stop offset=".74" stop-color="#ffc9c9" stop-opacity=".02"></stop><stop offset=".82" stop-color="#ffc9c9" stop-opacity=".07"></stop><stop offset=".9" stop-color="#ffc9c9" stop-opacity=".16"></stop><stop offset=".99" stop-color="#ffc9c9" stop-opacity=".28"></stop><stop offset="1" stop-color="#ffc9c9" stop-opacity=".3"></stop></radialGradient><linearGradient id="wRxYF6e_M9jEruJ875N~Ye" x1="14.18" x2="11.93" y1="9.94" y2="12.17" gradientTransform="matrix(-1 0 0 1 48 0)" gradientUnits="userSpaceOnUse"><stop offset="0" stop-color="#1f1f1f"></stop><stop offset=".03" stop-color="#272727"></stop><stop offset=".12" stop-color="#3f3f3f"></stop><stop offset=".23" stop-color="#515151"></stop><stop offset=".34" stop-color="#5b5b5b"></stop><stop offset=".47" stop-color="#5e5e5e"></stop><stop offset=".68" stop-color="#454545"></stop><stop offset=".94" stop-color="#1f1f1f"></stop></linearGradient><linearGradient id="wRxYF6e_M9jEruJ875N~Yf" x1="14.18" x2="11.93" y1="9.94" y2="12.17" gradientTransform="matrix(-1 0 0 1 48 0)" gradientUnits="userSpaceOnUse"><stop offset="0" stop-color="#1f1f1f"></stop><stop offset=".01" stop-color="#272727"></stop><stop offset=".07" stop-color="#3f3f3f"></stop><stop offset=".12" stop-color="#515151"></stop><stop offset=".18" stop-color="#5b5b5b"></stop><stop offset=".25" stop-color="#5e5e5e"></stop><stop offset=".55" stop-color="#454545"></stop><stop offset=".94" stop-color="#1f1f1f"></stop></linearGradient><radialGradient id="wRxYF6e_M9jEruJ875N~Yg" cx="4.94" cy="6.37" r="11.81" gradientTransform="matrix(-.73 .68 .37 .4 44.35 .49)" gradientUnits="userSpaceOnUse"><stop offset=".02" stop-color="#a11d1e"></stop><stop offset=".11" stop-color="#b02021"></stop><stop offset=".43" stop-color="#df292a"></stop><stop offset=".59" stop-color="#f12d2d"></stop><stop offset=".68" stop-color="#e62b2b"></stop><stop offset=".84" stop-color="#c72525"></stop><stop offset="1" stop-color="#a41e1f"></stop></radialGradient><linearGradient id="wRxYF6e_M9jEruJ875N~Yh" x1="38.74" x2="42.94" y1="2.86" y2="5.81" gradientUnits="userSpaceOnUse"><stop offset="0" stop-color="#ffc9c9" stop-opacity="0"></stop><stop offset=".15" stop-color="#ffc9c9" stop-opacity=".08"></stop><stop offset=".46" stop-color="#ffc9c9" stop-opacity=".28"></stop><stop offset=".5" stop-color="#ffc9c9" stop-opacity=".3"></stop><stop offset=".67" stop-color="#ffc9c9" stop-opacity=".18"></stop><stop offset=".88" stop-color="#ffc9c9" stop-opacity=".05"></stop><stop offset="1" stop-color="#ffc9c9" stop-opacity="0"></stop></linearGradient><radialGradient id="wRxYF6e_M9jEruJ875N~Yi" cx="7.95" cy="5.84" r="2.14" gradientTransform="matrix(.65 .76 .49 -.42 32.01 2.29)" gradientUnits="userSpaceOnUse"><stop offset=".02" stop-color="#661313"></stop><stop offset=".27" stop-color="#661313" stop-opacity=".97"></stop><stop offset=".45" stop-color="#661313" stop-opacity=".88"></stop><stop offset=".62" stop-color="#661313" stop-opacity=".72"></stop><stop offset=".77" stop-color="#661313" stop-opacity=".5"></stop><stop offset=".91" stop-color="#661313" stop-opacity=".22"></stop><stop offset="1" stop-color="#661313" stop-opacity="0"></stop></radialGradient><linearGradient id="wRxYF6e_M9jEruJ875N~Yj" x1="11.66" x2="9.37" y1="7.41" y2="9.64" gradientTransform="matrix(-1 0 0 1 48 0)" gradientUnits="userSpaceOnUse"><stop offset="0" stop-color="#a41e1f"></stop><stop offset=".03" stop-color="#b62122"></stop><stop offset=".08" stop-color="#d02627"></stop><stop offset=".14" stop-color="#e22a2a"></stop><stop offset=".19" stop-color="#ed2c2c"></stop><stop offset=".26" stop-color="#f12d2d"></stop><stop offset=".39" stop-color="#e92b2b"></stop><stop offset=".61" stop-color="#d12727"></stop><stop offset=".87" stop-color="#ac1f20"></stop><stop offset=".94" stop-color="#a11d1e"></stop></linearGradient><linearGradient id="wRxYF6e_M9jEruJ875N~Yk" x1="15.44" x2="13.39" y1="11.28" y2="13.83" gradientTransform="matrix(-1 0 0 1 48 0)" gradientUnits="userSpaceOnUse"><stop offset="0" stop-color="#a41e1f"></stop><stop offset=".04" stop-color="#ba2223"></stop><stop offset=".1" stop-color="#d22727"></stop><stop offset=".17" stop-color="#e42a2b"></stop><stop offset=".23" stop-color="#ee2c2c"></stop><stop offset=".32" stop-color="#f12d2d"></stop><stop offset=".44" stop-color="#eb2c2c"></stop><stop offset=".6" stop-color="#db2929"></stop><stop offset=".77" stop-color="#c12324"></stop><stop offset=".94" stop-color="#a11d1e"></stop></linearGradient><linearGradient id="wRxYF6e_M9jEruJ875N~Yl" x1="12.54" x2="14.29" y1="11.83" y2="10.16" gradientTransform="matrix(-1 0 0 1 48 0)" gradientUnits="userSpaceOnUse"><stop offset="0" stop-color="#ffc9c9" stop-opacity="0"></stop><stop offset=".15" stop-color="#ffc9c9" stop-opacity=".05"></stop><stop offset=".43" stop-color="#ffc9c9" stop-opacity=".18"></stop><stop offset=".65" stop-color="#ffc9c9" stop-opacity=".3"></stop><stop offset=".68" stop-color="#ffc9c9" stop-opacity=".28"></stop><stop offset=".89" stop-color="#ffc9c9" stop-opacity=".08"></stop><stop offset="1" stop-color="#ffc9c9" stop-opacity="0"></stop></linearGradient><linearGradient id="wRxYF6e_M9jEruJ875N~Ym" x1="26.42" x2="32.23" y1="33.91" y2="26.95" gradientTransform="matrix(-1 0 0 1 48 0)" gradientUnits="userSpaceOnUse"><stop offset="0" stop-color="#855e32"></stop><stop offset=".24" stop-color="#8c6334"></stop><stop offset=".57" stop-color="#9e703b"></stop><stop offset=".97" stop-color="#bc8546"></stop><stop offset="1" stop-color="#bf8747"></stop></linearGradient><linearGradient id="wRxYF6e_M9jEruJ875N~Yn" x1="26.46" x2="27.77" y1="33.2" y2="31.87" gradientTransform="matrix(-1 0 0 1 48 0)" gradientUnits="userSpaceOnUse"><stop offset="0" stop-color="#613e18"></stop><stop offset=".46" stop-color="#613e18" stop-opacity=".47"></stop><stop offset=".81" stop-color="#613e18" stop-opacity=".13"></stop><stop offset="1" stop-color="#613e18" stop-opacity="0"></stop></linearGradient><linearGradient id="wRxYF6e_M9jEruJ875N~Yo" x1="34.28" x2="26.93" y1="24.34" y2="31.95" gradientTransform="matrix(-1 0 0 1 48 0)" gradientUnits="userSpaceOnUse"><stop offset="0" stop-color="#d4a050"></stop><stop offset=".21" stop-color="#dfaa59"></stop><stop offset=".5" stop-color="#ebb563"></stop><stop offset=".64" stop-color="#e5af5c"></stop><stop offset=".85" stop-color="#d49d4a"></stop><stop offset="1" stop-color="#c48c38"></stop></linearGradient><linearGradient id="wRxYF6e_M9jEruJ875N~Yp" x1="31.43" x2="34.71" y1="27.37" y2="24.22" gradientTransform="rotate(89.47 24.028 20.355)" gradientUnits="userSpaceOnUse"><stop offset="0" stop-color="#bd8736" stop-opacity=".5"></stop><stop offset="0" stop-color="#bf8938" stop-opacity=".52"></stop><stop offset="0" stop-color="#c48e3d" stop-opacity=".57"></stop><stop offset="0" stop-color="#cc9644" stop-opacity=".66"></stop><stop offset="0" stop-color="#d7a150" stop-opacity=".78"></stop><stop offset="0" stop-color="#e6b05e" stop-opacity=".94"></stop><stop offset="0" stop-color="#ebb563"></stop><stop offset=".04" stop-color="#e9b361" stop-opacity=".95"></stop><stop offset=".11" stop-color="#e4ad5b" stop-opacity=".82"></stop><stop offset=".2" stop-color="#dba552" stop-opacity=".6"></stop><stop offset=".31" stop-color="#d09945" stop-opacity=".31"></stop><stop offset=".42" stop-color="#c48c38" stop-opacity="0"></stop></linearGradient><linearGradient id="wRxYF6e_M9jEruJ875N~Yq" x1="30.03" x2="28.88" y1="24.35" y2="25.54" gradientTransform="rotate(89.47 24.028 20.355)" gradientUnits="userSpaceOnUse"><stop offset="0" stop-color="#e3ac5a"></stop><stop offset=".5" stop-color="#f2c27d"></stop><stop offset=".76" stop-color="#eebc71"></stop><stop offset="1" stop-color="#e9b362"></stop></linearGradient><linearGradient id="wRxYF6e_M9jEruJ875N~Yr" x1="34.43" x2="27.08" y1="24.19" y2="31.79" gradientTransform="matrix(-1 0 0 1 48 0)" gradientUnits="userSpaceOnUse"><stop offset="0" stop-color="#fcddac" stop-opacity=".8"></stop><stop offset=".01" stop-color="#fcddac" stop-opacity=".71"></stop><stop offset=".03" stop-color="#fcddac" stop-opacity=".55"></stop><stop offset=".06" stop-color="#fcddac" stop-opacity=".4"></stop><stop offset=".08" stop-color="#fcddac" stop-opacity=".27"></stop><stop offset=".11" stop-color="#fcddac" stop-opacity=".17"></stop><stop offset=".14" stop-color="#fcddac" stop-opacity=".1"></stop><stop offset=".17" stop-color="#fcddac" stop-opacity=".04"></stop><stop offset=".22" stop-color="#fcddac" stop-opacity=".01"></stop><stop offset=".3" stop-color="#fcddac" stop-opacity="0"></stop></linearGradient></defs><g data-name="Cricket Game"><path fill="url(#wRxYF6e_M9jEruJ875N~Ya)" d="M42,37.49a6.49,6.49,0,0,1-5.41,6.41,1,1,0,0,1-.18,0,5.37,5.37,0,0,1-.9.07H35.1a6.47,6.47,0,0,1-1.6-.3.76.76,0,0,1-.16-.06,5.21,5.21,0,0,1-.87-.38l-.13-.07A6.49,6.49,0,0,1,34.85,31h0c.22,0,.43,0,.65,0a2.88,2.88,0,0,1,.41,0h0a6.33,6.33,0,0,1,3,1s.08.05.12.07A6.48,6.48,0,0,1,42,37.49Z"></path><path fill="url(#wRxYF6e_M9jEruJ875N~Yb)" d="M38.93,32a5.78,5.78,0,0,0-1.14-.57c.62.91.61,2.16.47,4-.27,3.5-1.93,8.06-3,8.61h.26a5.46,5.46,0,0,0,.9-.07c1.45-1.67,2.3-4.78,2.67-7.47A10.81,10.81,0,0,0,38.93,32Z"></path><path fill="url(#wRxYF6e_M9jEruJ875N~Yc)" d="M35.92,31a2.88,2.88,0,0,0-.41,0c-.22,0-.43,0-.65,0,.89.51.62,3.34.39,4.84-.51,3.35-1.65,6.59-2.91,7.3l.13.07a5.21,5.21,0,0,0,.87.38c1.61-1.43,2.7-5.06,3-8.08C36.56,34,36.54,31.65,35.92,31Z"></path><path fill="url(#wRxYF6e_M9jEruJ875N~Yd)" d="M42,37.49a6.49,6.49,0,0,1-5.41,6.41,1,1,0,0,1-.18,0,5.37,5.37,0,0,1-.9.07H35.1a6.47,6.47,0,0,1-1.6-.3.76.76,0,0,1-.16-.06,5.21,5.21,0,0,1-.87-.38l-.13-.07A6.49,6.49,0,0,1,34.85,31h0c.22,0,.43,0,.65,0a2.88,2.88,0,0,1,.41,0h0a6.33,6.33,0,0,1,3,1s.08.05.12.07A6.48,6.48,0,0,1,42,37.49Z"></path><polygon fill="url(#wRxYF6e_M9jEruJ875N~Ye)" points="28 15.93 30.05 18 32.8 15.22 33.33 14.68 33.97 14.03 34.5 13.49 34.77 13.21 35.29 12.69 35.98 11.99 36.5 11.46 36.75 11.21 37.26 10.7 37.99 9.95 38.5 9.43 41.79 6.1 39.75 4.03 36.52 7.3 36.09 7.74 36.08 7.74 35.03 8.81 34.6 9.25 34.11 9.74 33.03 10.83 32.6 11.27 32.56 11.31 32.13 11.75 31.04 12.85 30.61 13.29 28 15.93"></polygon><polygon fill="url(#wRxYF6e_M9jEruJ875N~Yf)" points="28 15.93 30.05 18 32.8 15.22 33.33 14.68 33.97 14.03 34.5 13.49 34.77 13.21 35.29 12.69 35.98 11.99 36.5 11.46 36.75 11.21 37.26 10.7 37.99 9.95 38.5 9.43 41.79 6.1 39.75 4.03 36.52 7.3 36.09 7.74 36.08 7.74 35.03 8.81 34.6 9.25 34.11 9.74 33.03 10.83 32.6 11.27 32.56 11.31 32.13 11.75 31.04 12.85 30.61 13.29 28 15.93"></polygon><path fill="url(#wRxYF6e_M9jEruJ875N~Yg)" d="M38.64,5.16l0,0a1.31,1.31,0,0,1,1.83.19,1.31,1.31,0,0,1,.28,1.82l-.17.16a1.49,1.49,0,0,0,1.09,0h0c.13,0,.22-.14.36-.21l1.28-.9.19-.17a2.34,2.34,0,0,0-.46-3.22,2.29,2.29,0,0,0-3.2-.32C39.82,2.57,38.83,4,38.83,4l0,.07h0A1.24,1.24,0,0,0,38.64,5.16Z"></path><path fill="url(#wRxYF6e_M9jEruJ875N~Yh)" d="M38.64,5.16l0,0a1.31,1.31,0,0,1,1.83.19,1.31,1.31,0,0,1,.28,1.82l-.17.16a1.49,1.49,0,0,0,1.09,0h0c.13,0,.22-.14.36-.21l1.28-.9.19-.17a2.34,2.34,0,0,0-.46-3.22,2.29,2.29,0,0,0-3.2-.32C39.82,2.57,38.83,4,38.83,4l0,.07h0A1.24,1.24,0,0,0,38.64,5.16Z" opacity=".8"></path><polygon fill="#a07646" points="32.59 19.55 32.59 20.87 28 26 29 20 32.59 19.55"></polygon><path fill="url(#wRxYF6e_M9jEruJ875N~Yi)" d="M38.64,5.16l0,0,0,0a1.32,1.32,0,0,1,1.8.22,1.35,1.35,0,0,1,.29,1.81l0,0-.15.14a1.49,1.49,0,0,0,1.09,0h0A2.23,2.23,0,0,0,41,4.78,2.54,2.54,0,0,0,38.83,4l0,.07h0A1.24,1.24,0,0,0,38.64,5.16Z" opacity=".7"></path><path fill="url(#wRxYF6e_M9jEruJ875N~Yj)" d="M35.08,8.76a1.46,1.46,0,0,1,.76.25,1.88,1.88,0,0,1,.53.37,2.13,2.13,0,0,1,.38.54,2,2,0,0,1,.25.67A1.15,1.15,0,0,1,37,11l.26-.26.24-.25L38,10l.51-.52.58-.59.5-.5a2.6,2.6,0,0,0-.75-1.42,2.67,2.67,0,0,0-1.23-.71l-.44.44-.64.65-.43.44h0l-.55.57Z"></path><path fill="url(#wRxYF6e_M9jEruJ875N~Yk)" d="M31.13,12.76a1.7,1.7,0,0,1,.7.25,1.73,1.73,0,0,1,.53.38,2.17,2.17,0,0,1,.39.54,1.74,1.74,0,0,1,.24.68A1.46,1.46,0,0,1,33,15l.35-.35.18-.18L34,14l.53-.54.27-.28.85-.85c0-.08,0-.16-.07-.25a2.36,2.36,0,0,0-.29-.68,2.34,2.34,0,0,0-.42-.52,3.16,3.16,0,0,0-.51-.41,2.53,2.53,0,0,0-.68-.3l-.43.44-.19.19-.43.44,0,0-.43.44-.57.57Z"></path><path fill="url(#wRxYF6e_M9jEruJ875N~Yl)" d="M28,15.93,30.05,18l2.75-2.78.53-.54L34,14l.53-.54.27-.28.52-.52L36,12l.52-.53.25-.25.51-.51L38,10l.51-.52,2.11-2.14.15-.14,0,0,0,0a1.37,1.37,0,0,0-.31-1.79,1.32,1.32,0,0,0-1.79-.23l0,0,0,0h0L36.52,7.3l-.43.44h0L35,8.81l-.43.44-.49.49L33,10.83l-.43.44,0,0-.43.44L31,12.85l-.43.44Z" opacity=".7"></path><path fill="url(#wRxYF6e_M9jEruJ875N~Ym)" d="M2.76,35.64c.06-.07.11-.15.18-.22L24.1,15.88a3.1,3.1,0,0,1,4.31,0l3.91,3.19a2.15,2.15,0,0,1,.42.58l.26-.29v1.28a2.28,2.28,0,0,1-.68,1.65L11.38,43.17a4.18,4.18,0,0,1-5.67-.65L2.94,39.8A3.05,3.05,0,0,1,2,37.62H2l0-.77Z"></path><path fill="url(#wRxYF6e_M9jEruJ875N~Yn)" d="M2.76,35.64c.06-.07.11-.15.18-.22L24.1,15.88a3.1,3.1,0,0,1,4.31,0l3.91,3.19a2.15,2.15,0,0,1,.42.58l.26-.29v1.28a2.28,2.28,0,0,1-.68,1.65L11.38,43.17a4.18,4.18,0,0,1-5.67-.65L2.94,39.8A3.05,3.05,0,0,1,2,37.62H2l0-.77Z" opacity=".2"></path><path fill="url(#wRxYF6e_M9jEruJ875N~Yo)" d="M2.92,39.05l3.24,3.18a3.21,3.21,0,0,0,4.47,0L32.32,20.94a2.25,2.25,0,0,0,0-3.23l-3.91-3.83a3.08,3.08,0,0,0-4.31,0L2.92,34.66A3.07,3.07,0,0,0,2.92,39.05Z"></path><polygon fill="url(#wRxYF6e_M9jEruJ875N~Yp)" points="4.75 40.87 4.75 40.87 29.66 15.1 31.31 16.72 5.84 41.97 4.75 40.87" opacity=".7"></polygon><polygon fill="url(#wRxYF6e_M9jEruJ875N~Yq)" points="29.06 14.51 30.29 15.72 9.09 36.35 29.06 14.51"></polygon><path fill="url(#wRxYF6e_M9jEruJ875N~Yr)" d="M2.92,39.05l3.24,3.18a3.21,3.21,0,0,0,4.47,0L32.32,20.94a2.25,2.25,0,0,0,0-3.23l-3.91-3.83a3.08,3.08,0,0,0-4.31,0L2.92,34.66A3.07,3.07,0,0,0,2.92,39.05Z" opacity=".4"></path></g></svg>