<?xml version="1.0" ?><!DOCTYPE svg  PUBLIC '-//W3C//DTD SVG 1.1//EN'  'http://www.w3.org/Graphics/SVG/1.1/DTD/svg11.dtd'><svg height="512px" style="enable-background:new 0 0 512 512;" version="1.1" viewBox="0 0 512 512" width="512px" xml:space="preserve" xmlns="http://www.w3.org/2000/svg" xmlns:xlink="http://www.w3.org/1999/xlink"><g id="_x38_1"><g><g><path d="M223.383,201.791c-0.292,0-0.588-0.04-0.876-0.112c-0.919-0.239-1.708-0.834-2.18-1.655     c-0.143-0.252-0.27-0.494-0.37-0.74c-3.966,1.689-6.726,2.28-8.542,1.85c-1.325-0.312-2.408-1.094-3.05-2.207     c-1.917-3.314-0.334-6.152,12.805-14.797c-0.039-0.061-0.079-0.121-0.112-0.185c-0.946-1.64-0.431-3.735,1.167-4.748l2.732-1.729     c-0.661-0.303-1.219-0.81-1.589-1.446c-0.564-0.985-0.703-2.153-0.388-3.296c1.228-4.409,10.421-9.994,46.319-29.834     c15.84-8.76,33.809-18.687,47.557-27.29c14.713-9.197,19.994-14.057,21.893-16.407c-3.117,0.773-8.332,3.12-15.101,6.686     c-5.063,8.888-30.474,23.284-67.769,43.697c-6.598,3.615-13.599,7.447-19.445,10.764c-4.788,3.239-9.558,6.504-14.282,9.77     c-0.81,0.561-1.822,0.758-2.783,0.537c-0.961-0.215-1.792-0.822-2.283-1.677c-0.519-0.904-0.649-1.965-0.361-2.993     c0.367-1.325,1.362-2.578,4.679-4.846c-0.576-0.309-1.061-0.773-1.392-1.346c-0.564-0.979-0.707-2.141-0.4-3.281     c0.416-1.531,1.889-3.296,5.03-5.743c-0.418-0.297-0.773-0.682-1.031-1.128c-0.928-1.598-0.458-3.645,1.067-4.685l7.065-4.812     c-0.867-0.288-1.589-0.87-2.041-1.662c-0.115-0.2-0.215-0.397-0.297-0.585c-6.428,2.92-8.087,2.541-9.233,2.277     c-1.261-0.285-2.292-1.028-2.902-2.089c-0.888-1.534-0.864-3.056,0.395-5.021c-4.391,2.226-6.98,2.883-8.763,2.474     c-1.195-0.282-2.18-0.998-2.769-2.02c-0.767-1.334-0.734-2.583-0.058-3.866c-0.74-0.325-1.349-0.867-1.762-1.58     c-0.452-0.785-0.588-1.719-0.37-2.599c0.073-0.294,0.167-0.555,0.288-0.782c-1.174,0.297-2.05,0.31-2.79,0.137     c-1.122-0.27-2.05-0.949-2.61-1.919c-1.183-2.053-0.804-3.433,2.101-6.21c-0.558,0.054-0.913-0.027-1.219-0.097     c-1.062-0.243-1.944-0.882-2.474-1.81c-0.185-0.315-0.315-0.661-0.395-1.019l-1.137-5.258l-9.997,5.773     c-1.686,0.979-3.848,0.394-4.824-1.292c-1.404-2.435-0.258-4.287,4.493-9.1c-0.315-1.458,0.328-3.014,1.689-3.799     c0.442-0.255,0.916-0.403,1.395-0.455c0.485-0.273,1.422-0.867,3.238-2.156c0.725-0.506,1.707-1.207,3.238-0.876     c0.977,0.212,1.813,0.828,2.311,1.692c0.255,0.44,0.418,0.843,0.503,1.225c0.604-0.07,1.237,0.021,1.816,0.279     c1.031,0.458,1.78,1.38,2.016,2.483l1.34,6.183c4.351-2.326,12.59-7.565,19.54-12.313c0.813-0.555,1.819-0.746,2.777-0.528     c0.961,0.219,1.783,0.828,2.277,1.68c1.255,2.181,0.625,4.3-2.162,7.402c5.337-3.429,10.886-7.071,15.822-10.31     c32.483-21.301,39.343-25.14,43.12-24.245c1.116,0.264,2.038,0.946,2.59,1.91c0.703,1.207,0.801,2.423,0.334,3.72     c1.485,0.34,2.692,1.21,3.407,2.45c0.576,0.992,0.686,1.829,0.468,2.565c0.079,0.015,0.151,0.03,0.23,0.045     c1.146,0.27,2.086,0.958,2.656,1.947c0.945,1.634,0.437,3.727-1.159,4.742c-22.292,14.236-45.843,30.207-58.96,40.228     c14.5-7.944,38.682-23.348,60.696-38.373c0.806-0.555,1.813-0.746,2.777-0.527c0.952,0.221,1.771,0.828,2.268,1.68     c0.691,1.186,0.843,2.359,0.321,3.693c0.455-0.085,0.759-0.009,1.171,0.097c0.922,0.233,1.71,0.833,2.189,1.659     c0.739,1.276,0.594,2.838-0.279,3.944c5.318-3.141,10.461-6.183,15.252-9.026c0.818-0.482,1.783-0.619,2.698-0.376     c0.91,0.236,1.692,0.831,2.165,1.649c0.595,1.034,0.746,2.274,0.413,3.493c-0.213,0.794-0.668,1.644-1.432,2.589     c0.188,0.07,0.357,0.148,0.521,0.249c14.985-7.577,18.205-6.859,19.982-6.458c1.516,0.343,2.747,1.21,3.463,2.45     c0.563,0.992,1.128,2.638,0.521,4.828c-0.376,1.361-1.256,2.847-2.59,4.46c0.71,0.27,1.34,0.773,1.765,1.477     c1.001,1.646,0.491,3.784-1.128,4.812l-14.075,8.909c0.425,0.291,0.776,0.679,1.037,1.131c2.165,3.745-0.516,6.364-16.871,16.474     c-2.839,1.756-5.949,3.639-9.285,5.628c-0.085,0.055-0.157,0.112-0.236,0.167c0.115,0.143,0.225,0.288,0.31,0.439     c0.552,0.955,0.728,1.871,0.54,2.796c7.398-3.906,8.211-3.693,9.254-3.43c0.928,0.24,1.765,0.87,2.237,1.692     c2.057,3.557-1.91,6.465-7.404,10.485c-1.249,0.925-2.692,1.947-4.306,3.069c0.23,1.082-0.091,2.207-1.098,3.678     c1.474-0.637,2.505-0.746,3.505-0.521c1.092,0.243,1.989,0.897,2.535,1.847c0.442,0.761,0.686,1.422,0.601,2.146     c1.225-0.403,1.704-0.285,2.226-0.154c0.928,0.23,1.783,0.87,2.262,1.701c1.419,2.462-0.024,3.848-2.898,6.604     c-0.601,0.576-1.304,1.24-2.063,1.961c0.613,0.304,1.129,0.789,1.486,1.395c0.127,0.228,0.236,0.455,0.321,0.676l5.658-3.271     c1.57-0.898,3.56-0.477,4.621,0.982c0.588,0.803,0.788,1.78,0.624,2.695c0.716,0.294,1.316,0.819,1.705,1.495     c1.771,3.065-0.528,5.776-6.557,11.07c0.007,0.006,0.013,0.018,0.024,0.03c1.08,1.622,0.644,3.814-0.976,4.9     c-11.152,7.447-12.202,7.208-13.646,6.871c-0.952-0.224-1.837-0.874-2.322-1.719c-1.134-1.959-0.697-3.487,1.583-5.904     c-0.752-0.303-1.42-0.864-1.819-1.562c-0.874-1.471-0.74-2.496,0.2-3.708c-0.273-0.215-0.516-0.473-0.716-0.767     c-6.276,3.857-7.938,3.514-8.891,3.324c-1.158-0.234-2.11-0.916-2.687-1.911c-0.897-1.577-0.807-2.611,0.546-4.275     c-0.612,0.379-1.225,0.755-1.819,1.137c-1.576,0.988-3.663,0.579-4.748-0.931c-0.383-0.537-0.601-1.146-0.655-1.762     c-1.498,0.63-2.565,0.752-3.572,0.527c-1.109-0.246-2.019-0.913-2.571-1.868c-1.437-2.523-0.121-3.703,3.391-6.862     c0.109-0.094,0.218-0.191,0.315-0.288c-9.57,5.8-10.001,5.688-11.589,5.291c-0.922-0.233-1.753-0.861-2.227-1.683     c-0.327-0.561-0.479-1.174-0.479-1.777c-14.139,8.375-28.955,17.25-40.901,24.47     C224.656,201.618,224.025,201.791,223.383,201.791z" style="fill:#871518;"/></g><g><path d="M240.272,97.22c-0.379,0-0.716-0.045-1.043-0.127c-1.061-0.252-1.94-0.907-2.477-1.829     c-1.883-3.266,1.346-6.046,5.822-9.891c0.861-0.743,1.828-1.552,2.896-2.429c-0.264-0.245-0.494-0.527-0.673-0.84     c-1.501-2.599,0.327-4.236,2.853-6.501c1.244-1.113,2.932-2.589,4.861-4.272c-1.51,0.543-3.245-0.003-4.151-1.4     c-1.024-1.571-0.637-3.675,0.879-4.779c0.864-0.63,1.735-1.27,2.611-1.913c-0.048-0.009-0.097-0.021-0.146-0.033     c-1.031-0.243-1.889-0.87-2.411-1.78c-0.773-1.34-0.585-3.029,0.467-4.164c2.444-2.638,5.027-5.576,7.277-8.271     c-0.871-0.255-1.607-0.834-2.063-1.622c-1.464-2.535-0.069-4.937,4.088-10.085c-0.773-0.297-1.465-0.873-1.877-1.585     c-0.977-1.689-0.395-3.848,1.291-4.821c0.446-0.258,0.926-0.409,1.404-0.458c1.216-0.622,4.057-2.478,5.5-3.417     c3.433-2.238,4.058-2.645,5.646-2.265c0.939,0.221,1.752,0.831,2.237,1.665c1.541,2.665,0.024,4.721-5.148,10.992     c0.661,0.324,1.213,0.837,1.583,1.474c0.686,1.191,1.474,2.562-1.692,7.456c10.279-6.783,12.226-7.674,14.379-7.168     c1.031,0.243,1.886,0.873,2.407,1.777c1.353,2.341,1.189,4.103-6.403,10.601c0.157,0.179,0.31,0.379,0.431,0.594     c1.419,2.468,0.146,4.584-4.19,8.821c1.413-0.367,2.959,0.164,3.82,1.437c1.067,1.577,0.697,3.711-0.837,4.833     c-0.146,0.103-0.291,0.212-0.437,0.318c4.852-2.957,5.536-2.938,6.889-2.611c0.935,0.227,1.795,0.867,2.28,1.704     c0.977,1.689,0.395,3.848-1.292,4.824c-0.412,0.243-0.86,0.391-1.315,0.449c-1.953,0.964-8.551,5.225-13.918,8.693     C248.716,94.23,243.283,97.22,240.272,97.22z" style="fill:#871518;"/></g><g><path d="M335.631,363.637c-0.267,0-0.527-0.03-0.801-0.091c-0.976-0.212-1.88-0.867-2.377-1.729     c-1.024-1.771-0.807-2.832,1.644-6.367c-0.576-0.334-1.062-0.807-1.389-1.383c-0.51-0.88-0.618-1.935-0.297-2.887l0.909-2.723     c-0.291-0.249-0.546-0.552-0.746-0.897c-1.285-2.226-0.394-3.608,3.372-9.424c0.061-0.092,0.121-0.188,0.188-0.292     c-4.864,2.924-11.104,6.92-16.647,10.649c-0.807,0.546-1.819,0.733-2.765,0.51c-0.952-0.213-1.771-0.825-2.269-1.668     c-0.703-1.225-0.813-2.153-0.188-3.317l-29.673,17.138c-1.681,0.977-3.852,0.4-4.828-1.291c-0.837-1.462-0.807-2.826,0.043-4.27     c-0.734,0.2-1.098,0.097-1.541-0.019c-0.915-0.236-1.71-0.843-2.188-1.667c-0.922-1.607-0.443-3.651,1.098-4.688l9.424-6.337     c-0.782-0.31-1.438-0.861-1.862-1.602c-0.484-0.83-0.667-1.576-0.575-2.279c-0.831,0.054-1.335-0.067-1.777-0.164     c-1.268-0.285-2.298-1.031-2.911-2.093c-1.431-2.468-0.2-4.937,3.506-8.508c-0.68,0.091-1.256,0.055-1.783-0.066     c-1.116-0.261-2.05-0.946-2.607-1.917c-0.94-1.625-0.57-3.104,0.473-4.536c-0.588-0.327-1.098-0.807-1.438-1.4     c-0.121-0.206-0.212-0.425-0.291-0.649c-0.109-0.327-0.485-1.71,0.376-3.02c-1.304,0.437-2.188,0.461-3.008,0.267     c-1.049-0.249-1.929-0.897-2.456-1.819c-1.364-2.347-0.049-4.354,2.08-6.216c-0.497,0.024-0.788-0.043-1.031-0.097     c-1.098-0.255-1.995-0.916-2.541-1.862l-2.983-5.439l-8.557,4.937c-0.813,0.473-1.776,0.6-2.681,0.357     c-0.909-0.242-1.677-0.831-2.146-1.649c-1.286-2.22-0.397-3.899,3.378-8.309c-0.379-1.491,0.261-3.116,1.658-3.923     c0.4-0.23,0.825-0.377,1.249-0.438c0.358-0.218,0.982-0.624,2.071-1.419c0.564-0.406,1.602-1.17,3.172-0.813     c0.958,0.212,1.789,0.819,2.286,1.674c0.249,0.431,0.412,0.831,0.491,1.219c0.461-0.066,0.928-0.024,1.383,0.098     c0.916,0.261,1.692,0.867,2.146,1.71l3.512,6.386c6.149-2.614,24.561-14.039,40.716-24.846c0.813-0.546,1.813-0.728,2.766-0.51     c0.958,0.225,1.771,0.831,2.256,1.68c0.746,1.286,0.916,2.56,0.376,4.009c1.668-0.654,2.692-0.728,3.614-0.51     c1.056,0.255,1.929,0.892,2.462,1.813c0.491,0.861,0.982,1.698,0.437,3.13c0.637-0.043,1.201-0.013,1.717,0.103     c1.285,0.291,2.335,1.05,2.965,2.147c0.183,0.314,0.31,0.612,0.4,0.896c4.857-2.759,6.907-3.269,8.539-2.893     c1.086,0.255,1.982,0.916,2.528,1.862c0.935,1.613,0.455,3.675-1.098,4.706c-17.61,11.746-36.222,24.87-47.411,33.608     c14.682-8.017,39.389-23.748,61.863-39.091c0.813-0.552,1.819-0.746,2.771-0.533c0.964,0.224,1.789,0.83,2.279,1.686     c1.037,1.795,1.146,3.518-1.249,6.276c0.528,0.31,0.971,0.746,1.28,1.286c0.922,1.606,0.454,3.656-1.092,4.688l-8.545,5.749     c0.837,0.267,1.553,0.837,2.001,1.606c2.293,3.973-1.801,7.63-11.85,14.313c-2.589,1.71-5.519,3.584-8.642,5.524     c0.012,0.019,0.019,0.03,0.024,0.049c0.388,0.661,0.588,1.315,0.588,1.989c7.017-3.936,8.356-3.627,9.303-3.402     c1.043,0.236,1.917,0.873,2.444,1.789c1.546,2.687-0.152,5.579-5.295,13.535c-0.103,0.146-0.193,0.291-0.297,0.449     c0.37,0.667,0.516,1.443,0.4,2.213c0.776-0.454,1.54-0.685,2.584-0.473c0.988,0.213,1.837,0.825,2.34,1.704     c1.292,2.226,0.583,3.19-4.014,9.473c-0.279,0.376-0.582,0.801-0.898,1.231c0.819,1.655,0.219,3.693-1.4,4.627     c-0.104,0.055-0.206,0.109-0.31,0.157c-0.121,0.085-0.278,0.2-0.437,0.315C338.336,362.745,337.086,363.637,335.631,363.637z" style="fill:#F89F2A;"/></g><g><path d="M298.05,289.136c-1.14,0-2.268-0.558-2.94-1.589c-1.031-1.552-0.674-3.645,0.818-4.767     c0.843-0.637,1.691-1.285,2.553-1.928c-0.042-0.019-0.078-0.024-0.121-0.03c-1.007-0.237-1.874-0.88-2.383-1.766     c-0.74-1.273-0.607-2.874,0.321-4.002c2.28-2.777,4.706-5.913,6.701-8.66c-0.583-0.309-1.08-0.776-1.413-1.364     c-1.443-2.48-0.085-4.854,3.887-10.094c-0.715-0.309-1.353-0.852-1.746-1.528c-0.977-1.686-0.4-3.848,1.291-4.824     c0.413-0.23,0.844-0.379,1.28-0.44c1.067-0.561,3.523-2.15,4.767-2.957c3.074-1.992,3.717-2.41,5.294-2.034     c0.934,0.227,1.753,0.833,2.237,1.67c1.535,2.674-0.048,4.736-5.318,11.55c-0.151,0.2-0.303,0.406-0.473,0.622     c0.357,0.291,0.667,0.64,0.897,1.046c0.686,1.188,1.432,2.478-1.546,7.469c10.357-6.829,12.074-7.642,14.202-7.139     c1.013,0.24,1.88,0.883,2.39,1.766c1.406,2.438,0.994,4.244-6.41,10.667c0.146,0.163,0.279,0.352,0.4,0.552     c0.97,1.691,0.395,3.845-1.298,4.821l-21.626,12.486C299.263,288.979,298.65,289.136,298.05,289.136z" style="fill:#F89F2A;"/></g><g><path d="M421.908,250.094c-0.26,0-0.533-0.03-0.818-0.091c-0.97-0.212-1.874-0.87-2.377-1.731     c-1.031-1.783-0.746-2.941,1.716-6.34c-0.473-0.318-0.885-0.749-1.176-1.255c-0.51-0.879-0.613-1.938-0.285-2.902l0.892-2.635     c-0.315-0.264-0.582-0.582-0.789-0.946c-1.291-2.229-0.388-3.614,3.421-9.445c0.061-0.097,0.133-0.197,0.193-0.3     c-4.905,2.944-11.2,6.978-16.792,10.74c-0.807,0.546-1.813,0.734-2.759,0.509c-0.952-0.218-1.777-0.825-2.269-1.67     c-0.697-1.225-0.813-2.156-0.193-3.312l-29.691,17.144c-0.807,0.47-1.777,0.594-2.675,0.355c-0.909-0.246-1.68-0.834-2.146-1.646     c-0.897-1.553-0.801-2.99,0.206-4.533c-0.461,0.061-0.752-0.015-1.098-0.106c-0.916-0.239-1.71-0.846-2.177-1.661     c-0.929-1.613-0.455-3.66,1.085-4.7l9.267-6.231c-0.795-0.309-1.443-0.864-1.88-1.604c-0.461-0.801-0.649-1.513-0.582-2.189     c-0.922,0.082-1.474-0.045-1.947-0.148c-1.261-0.288-2.298-1.034-2.904-2.095c-1.438-2.493-0.182-4.976,3.59-8.584     c-0.655,0.073-1.201,0.036-1.716-0.085c-1.116-0.261-2.044-0.94-2.608-1.911c-0.922-1.595-0.582-3.053,0.425-4.457     c-0.612-0.328-1.134-0.819-1.485-1.422c-0.4-0.701-0.553-1.517-0.431-2.311c0.085-0.54,0.272-0.982,0.503-1.334     c-1.353,0.461-2.256,0.491-3.074,0.294c-1.056-0.249-1.935-0.895-2.469-1.816c-1.34-2.332-0.066-4.321,2.025-6.17     c-0.515,0.033-0.818-0.037-1.066-0.094c-1.092-0.255-2.002-0.916-2.548-1.862c-0.024-0.042-0.042-0.085-0.066-0.127l-2.808-5.367     l-8.775,5.067c-0.813,0.467-1.777,0.594-2.681,0.352c-0.909-0.243-1.68-0.837-2.146-1.646c-1.304-2.253-0.388-3.96,3.511-8.351     c-0.388-1.504,0.249-3.147,1.656-3.963c0.412-0.237,0.861-0.382,1.304-0.44c0.412-0.24,1.146-0.722,2.492-1.689     c0.612-0.434,1.632-1.155,3.147-0.843c0.982,0.209,1.832,0.818,2.341,1.689c0.291,0.503,0.449,0.958,0.51,1.395     c0.352-0.018,0.703,0.04,1.043,0.14c0.922,0.27,1.698,0.9,2.146,1.752l3.36,6.407c6.197-2.647,24.578-14.063,40.728-24.861     c0.807-0.543,1.813-0.725,2.76-0.503c0.952,0.221,1.771,0.828,2.262,1.674c0.74,1.276,0.903,2.556,0.376,4     c1.686-0.667,2.717-0.734,3.645-0.516c1.056,0.249,1.923,0.895,2.456,1.813c0.576,1.001,0.698,1.98,0.449,2.978     c0.758-0.088,1.425-0.067,2.02,0.07c1.279,0.288,2.335,1.049,2.965,2.144c0.188,0.315,0.315,0.615,0.4,0.903     c4.742-2.683,6.762-3.187,8.394-2.805c1.079,0.252,1.982,0.913,2.528,1.859c0.928,1.613,0.443,3.672-1.104,4.703     c-17.642,11.759-36.265,24.895-47.483,33.639c14.633-7.999,39.176-23.629,61.504-38.873c0.807-0.552,1.813-0.746,2.777-0.524     c0.965,0.218,1.783,0.825,2.274,1.674c1.019,1.771,1.141,3.463-1.134,6.137c0.552,0.31,1.019,0.765,1.347,1.319     c0.928,1.61,0.448,3.663-1.092,4.7l-9.042,6.08c0.818,0.273,1.51,0.834,1.946,1.589c2.293,3.96-1.789,7.602-11.789,14.257     c-2.426,1.623-5.167,3.369-8.09,5.194c0.019,0.024,0.03,0.045,0.049,0.07c0.376,0.661,0.576,1.304,0.582,1.98     c7.022-3.93,8.351-3.624,9.297-3.399c1.055,0.243,1.922,0.879,2.45,1.795c1.559,2.695-0.164,5.6-5.38,13.59     c-0.072,0.119-0.157,0.243-0.236,0.37c0.382,0.676,0.54,1.465,0.425,2.244c0.776-0.458,1.534-0.686,2.59-0.461     c0.976,0.206,1.825,0.821,2.322,1.688c1.316,2.287,0.576,3.245-4.221,9.488c-0.243,0.31-0.491,0.64-0.752,0.982     c0.794,1.65,0.193,3.657-1.419,4.588c-0.109,0.061-0.213,0.118-0.328,0.167c-0.14,0.097-0.309,0.222-0.503,0.355     C424.638,249.199,423.376,250.094,421.908,250.094z" style="fill:#F8C424;"/></g><g><path d="M384.576,175.475c-1.152,0-2.273-0.561-2.953-1.586c-1.031-1.555-0.667-3.647,0.825-4.77     c0.83-0.625,1.667-1.261,2.517-1.904c-0.049-0.009-0.098-0.018-0.14-0.027c-1.001-0.239-1.868-0.879-2.384-1.765     c-0.733-1.273-0.612-2.868,0.328-4.002c2.256-2.756,4.663-5.876,6.641-8.605c-0.595-0.31-1.086-0.776-1.432-1.371     c-1.449-2.498-0.072-4.882,3.96-10.173c-0.709-0.312-1.334-0.849-1.716-1.516c-0.971-1.689-0.395-3.848,1.298-4.821     c0.399-0.233,0.831-0.376,1.261-0.44c1.074-0.561,3.5-2.131,4.736-2.935c3.081-1.989,3.718-2.404,5.295-2.025     c0.939,0.228,1.752,0.84,2.237,1.677c1.54,2.671-0.055,4.73-5.343,11.556c-0.157,0.197-0.315,0.403-0.479,0.618     c0.352,0.288,0.66,0.64,0.896,1.046c0.686,1.188,1.432,2.477-1.546,7.468c10.395-6.844,12.099-7.656,14.245-7.153     c1.001,0.236,1.868,0.876,2.377,1.762c1.407,2.432,1.001,4.239-6.386,10.649c0.158,0.167,0.285,0.352,0.4,0.555     c0.977,1.689,0.4,3.851-1.292,4.824l-21.583,12.466C385.783,175.32,385.177,175.475,384.576,175.475z M395.674,135.392     c0.152,0.14,0.304,0.297,0.431,0.47l0,0C395.978,135.684,395.826,135.532,395.674,135.392z" style="fill:#F8C424;"/></g><g><path d="M226.967,488.43c-0.264,0-0.534-0.024-0.816-0.085c-0.973-0.212-1.877-0.873-2.371-1.734     c-1.04-1.802-0.731-2.966,1.825-6.599c-0.503-0.327-0.931-0.764-1.234-1.285c-0.485-0.85-0.604-1.855-0.321-2.783l0.867-2.893     c-0.261-0.237-0.488-0.516-0.676-0.838c-1.273-2.207-0.391-3.577,3.299-9.369c0.061-0.091,0.125-0.182,0.185-0.285     c-4.836,2.911-11.046,6.883-16.562,10.589c-0.81,0.546-1.816,0.733-2.769,0.516c-0.952-0.219-1.774-0.831-2.262-1.681     c-0.704-1.219-0.81-2.146-0.188-3.311l-30.4,17.563c-0.81,0.467-1.777,0.588-2.681,0.352c-0.907-0.249-1.674-0.837-2.144-1.649     c-0.931-1.607-0.792-3.099,0.321-4.706c-0.349,0.012-0.591-0.049-0.879-0.127c-0.913-0.237-1.707-0.837-2.18-1.662     c-0.931-1.607-0.455-3.663,1.089-4.7l9.269-6.228c-0.794-0.304-1.456-0.861-1.883-1.607c-0.461-0.794-0.649-1.51-0.588-2.183     c-0.919,0.085-1.471-0.049-1.938-0.146c-1.265-0.298-2.302-1.043-2.914-2.104c-1.431-2.48-0.185-4.955,3.572-8.551     c-0.664,0.072-1.229,0.042-1.747-0.085c-1.122-0.261-2.049-0.934-2.607-1.91c-0.946-1.632-0.573-3.123,0.497-4.561     c-0.588-0.328-1.085-0.813-1.428-1.395c-0.41-0.716-0.561-1.553-0.419-2.359c0.076-0.455,0.267-0.903,0.534-1.311     c-1.368,0.479-2.28,0.51-3.111,0.316c-1.052-0.255-1.928-0.898-2.459-1.82c-1.35-2.34-0.063-4.323,2.035-6.179     c-0.503,0.03-0.819-0.037-1.067-0.098c-1.092-0.255-1.995-0.915-2.541-1.855l-3.014-5.422l-8.62,4.979     c-1.689,0.977-3.851,0.4-4.827-1.292c-1.277-2.208-0.41-3.881,3.305-8.229c-0.397-1.504,0.236-3.147,1.649-3.96     c0.403-0.23,0.828-0.382,1.262-0.442c0.364-0.213,1.007-0.637,2.141-1.462c0.57-0.406,1.634-1.177,3.187-0.818     c0.961,0.212,1.789,0.818,2.283,1.674c0.249,0.431,0.407,0.824,0.482,1.2c0.473-0.066,0.958-0.036,1.422,0.091     c0.913,0.255,1.686,0.861,2.147,1.687l3.551,6.392c6.122-2.602,24.47-13.99,40.577-24.767c0.81-0.534,1.81-0.722,2.765-0.498     c0.949,0.225,1.768,0.831,2.256,1.674c0.736,1.28,0.906,2.565,0.37,4.009c1.665-0.655,2.689-0.728,3.618-0.509     c1.052,0.248,1.925,0.891,2.456,1.819c0.485,0.83,0.958,1.649,0.482,3.02c0.707-0.066,1.331-0.049,1.892,0.085     c1.279,0.285,2.335,1.043,2.965,2.141c0.179,0.315,0.31,0.612,0.397,0.903c4.824-2.734,6.853-3.244,8.487-2.868     c1.086,0.261,1.983,0.922,2.532,1.862c0.928,1.612,0.449,3.675-1.101,4.706c-17.605,11.746-36.208,24.863-47.387,33.59     c14.667-8.005,39.358-23.724,61.814-39.061c0.813-0.552,1.819-0.746,2.781-0.521c0.955,0.219,1.78,0.825,2.271,1.68     c1.007,1.747,1.143,3.414-1.046,6.034c0.57,0.31,1.052,0.771,1.382,1.341c0.925,1.612,0.452,3.668-1.088,4.699l-8.796,5.913     c0.837,0.261,1.543,0.831,1.983,1.589c2.298,3.99-1.828,7.659-11.95,14.385c-2.504,1.668-5.331,3.469-8.351,5.343     c0.012,0.018,0.018,0.03,0.03,0.055c0.385,0.667,0.585,1.315,0.585,2.001c6.828-3.809,8.144-3.499,9.069-3.287     c1.052,0.242,1.919,0.879,2.447,1.795c1.537,2.656-0.13,5.537-5.188,13.457c-0.161,0.242-0.325,0.51-0.495,0.776     c0.306,0.631,0.428,1.353,0.322,2.062c0.773-0.461,1.534-0.703,2.595-0.479c0.989,0.206,1.837,0.824,2.344,1.691     c1.292,2.238,0.582,3.202-4.036,9.467c-0.218,0.291-0.449,0.606-0.688,0.939c0.901,1.674,0.31,3.767-1.349,4.73     c-0.106,0.061-0.218,0.115-0.331,0.17c-0.143,0.091-0.315,0.225-0.506,0.352C229.702,487.538,228.437,488.43,226.967,488.43z" style="fill:#F27022;"/></g><g><path d="M189.395,413.887c-1.149,0-2.271-0.559-2.947-1.583c-1.031-1.553-0.67-3.645,0.822-4.767     c0.843-0.637,1.695-1.279,2.553-1.94c-0.042-0.007-0.085-0.013-0.127-0.024c-1.003-0.236-1.871-0.873-2.383-1.759     c-0.733-1.279-0.604-2.875,0.331-4.015c2.271-2.766,4.703-5.906,6.695-8.642c-0.588-0.31-1.083-0.776-1.419-1.364     c-1.434-2.48-0.088-4.852,3.884-10.098c-0.722-0.31-1.355-0.855-1.744-1.528c-0.973-1.686-0.394-3.845,1.298-4.821     c0.397-0.23,0.828-0.376,1.265-0.442c1.064-0.558,3.502-2.135,4.745-2.941c3.063-1.983,3.703-2.401,5.27-2.02     c0.943,0.225,1.753,0.831,2.238,1.674c1.543,2.669-0.042,4.718-5.279,11.528c-0.146,0.182-0.3,0.382-0.461,0.589     c0.364,0.291,0.676,0.648,0.916,1.055c0.688,1.194,1.428,2.475-1.543,7.466c10.352-6.823,12.062-7.636,14.199-7.126     c1.004,0.236,1.874,0.873,2.38,1.759c1.407,2.438,0.998,4.245-6.404,10.667c0.146,0.17,0.279,0.352,0.391,0.552     c0.976,1.686,0.4,3.845-1.292,4.821l-21.623,12.492C190.602,413.734,189.995,413.887,189.395,413.887z M200.517,373.807     c0.158,0.146,0.297,0.297,0.425,0.474h0.006C200.811,374.104,200.668,373.946,200.517,373.807z" style="fill:#F27022;"/></g><g><path d="M178.964,325.517c-0.339,0-0.609-0.061-0.891-0.122c-0.956-0.224-1.841-0.879-2.329-1.722     c-1.128-1.953-0.694-3.475,1.585-5.9c-0.749-0.298-1.416-0.867-1.816-1.559c-0.846-1.486-0.716-2.511,0.203-3.706     c-0.276-0.224-0.521-0.479-0.725-0.782c-6.268,3.863-7.938,3.523-8.885,3.336c-1.155-0.243-2.104-0.916-2.684-1.917     c-0.906-1.576-0.815-2.607,0.537-4.269c-0.609,0.376-1.216,0.752-1.816,1.128c-1.58,0.994-3.657,0.588-4.745-0.928     c-0.385-0.54-0.601-1.146-0.649-1.759c-1.504,0.63-2.565,0.752-3.581,0.521c-1.104-0.243-2.014-0.91-2.568-1.868     c-1.453-2.492-0.14-3.681,3.378-6.847c0.106-0.097,0.209-0.194,0.318-0.285c-9.561,5.786-9.988,5.677-11.574,5.276     c-0.925-0.23-1.756-0.861-2.232-1.686c-0.321-0.553-0.476-1.159-0.476-1.759c-13.948,8.259-28.533,16.992-40.31,24.118     c-0.81,0.484-1.792,0.63-2.708,0.388c-0.919-0.23-1.701-0.831-2.18-1.649c-0.115-0.2-0.218-0.4-0.309-0.601     c-4.654,2.116-7.814,2.893-9.818,2.414c-1.322-0.315-2.404-1.098-3.044-2.208c-1.907-3.305-0.346-6.119,12.696-14.712     c-0.045-0.066-0.085-0.14-0.121-0.2c-0.952-1.644-0.437-3.735,1.167-4.755l2.823-1.782c-0.643-0.298-1.204-0.782-1.586-1.443     c-0.567-0.982-0.707-2.153-0.388-3.299c1.231-4.434,10.485-10.043,46.614-29.995c15.961-8.812,34.052-18.802,47.899-27.456     c14.888-9.306,20.186-14.197,22.063-16.547c-3.108,0.758-8.323,3.099-15.104,6.668c-5.003,8.924-30.601,23.412-68.203,43.981     c-6.665,3.646-13.735,7.515-19.63,10.85c-4.794,3.257-9.579,6.525-14.306,9.8c-0.813,0.559-1.819,0.746-2.787,0.54     c-0.961-0.219-1.789-0.831-2.283-1.687c-0.519-0.903-0.649-1.965-0.361-2.995c0.376-1.334,1.38-2.602,4.779-4.912     c-0.573-0.31-1.049-0.771-1.38-1.347c-0.563-0.977-0.706-2.135-0.4-3.28c0.418-1.547,1.922-3.33,5.133-5.822     c-0.412-0.291-0.758-0.673-1.016-1.109c-0.922-1.607-0.452-3.646,1.073-4.688l6.935-4.718c-0.879-0.291-1.601-0.873-2.062-1.668     c-0.115-0.2-0.216-0.394-0.297-0.588c-6.355,2.874-8.005,2.499-9.151,2.231c-1.261-0.278-2.292-1.024-2.908-2.086     c-0.882-1.537-0.864-3.06,0.403-5.027c-4.396,2.231-6.989,2.893-8.772,2.48c-1.192-0.282-2.177-0.998-2.769-2.02     c-0.767-1.331-0.731-2.583-0.055-3.866c-0.743-0.321-1.355-0.867-1.765-1.577c-0.418-0.755-0.752-2.117-0.073-3.384     c-1.183,0.297-2.059,0.312-2.805,0.136c-1.122-0.267-2.044-0.946-2.608-1.916c-1.186-2.053-0.806-3.445,2.104-6.204     c-0.561,0.049-0.916-0.033-1.222-0.103c-1.064-0.24-1.943-0.882-2.477-1.81c-0.218-0.379-0.37-0.804-0.434-1.237l-0.786-5.218     l-10.282,5.937c-1.692,0.976-3.851,0.397-4.824-1.292c-1.413-2.447-0.252-4.321,4.566-9.103c-0.331-1.468,0.309-3.041,1.68-3.833     c0.458-0.267,0.946-0.416,1.44-0.461c0.524-0.288,1.577-0.946,3.657-2.411c0.734-0.519,1.744-1.228,3.271-0.895     c0.974,0.212,1.811,0.828,2.302,1.689c0.251,0.434,0.416,0.834,0.5,1.213c0.655-0.079,1.332,0.027,1.947,0.321     c1.049,0.509,1.783,1.504,1.956,2.656l0.937,6.204c4.509-2.429,12.877-7.756,19.958-12.587c0.813-0.552,1.819-0.746,2.778-0.524     c0.958,0.218,1.78,0.825,2.271,1.68c1.231,2.129,0.655,4.224-2.156,7.35c5.127-3.293,10.406-6.759,15.13-9.857     c32.447-21.277,39.291-25.122,43.075-24.221c1.119,0.267,2.038,0.943,2.596,1.907c0.707,1.222,0.797,2.447,0.315,3.763     c1.465,0.339,2.659,1.204,3.372,2.435c0.579,1.01,0.685,1.85,0.452,2.599c0.07,0.012,0.14,0.024,0.207,0.039     c1.14,0.27,2.083,0.958,2.653,1.944c0.946,1.637,0.434,3.724-1.158,4.743c-22.247,14.221-45.752,30.167-58.836,40.167     c14.548-7.959,38.9-23.466,61.056-38.591c0.81-0.552,1.813-0.746,2.775-0.524c0.958,0.219,1.786,0.825,2.274,1.677     c0.676,1.167,0.843,2.326,0.346,3.636c0.521-0.127,0.846-0.042,1.289,0.07c0.922,0.233,1.719,0.834,2.195,1.662     c0.734,1.279,0.585,2.838-0.282,3.945c5.318-3.141,10.455-6.183,15.252-9.03c0.81-0.479,1.783-0.616,2.695-0.376     c0.913,0.239,1.695,0.831,2.165,1.649c0.598,1.04,0.746,2.28,0.416,3.499c-0.212,0.792-0.67,1.644-1.425,2.583     c0.17,0.067,0.337,0.149,0.494,0.237c14.991-7.578,18.218-6.85,20-6.45c1.516,0.343,2.747,1.213,3.463,2.45     c0.576,1,1.134,2.65,0.521,4.845c-0.403,1.461-1.38,3.068-2.89,4.824c0.63,0.285,1.183,0.755,1.567,1.389     c0.995,1.646,0.491,3.787-1.134,4.815l-15.783,9.981c0.395,0.288,0.725,0.658,0.97,1.08c2.153,3.73-0.491,6.325-16.667,16.34     c-2.563,1.583-5.349,3.275-8.317,5.058c0.127,0.152,0.246,0.315,0.343,0.485c0.545,0.946,0.721,1.855,0.54,2.771     c7.926-4.227,8.766-4.015,9.83-3.742c0.919,0.237,1.762,0.868,2.238,1.692c2.05,3.554-1.907,6.452-7.386,10.467     c-1.265,0.935-2.711,1.959-4.333,3.093c0.221,1.086-0.1,2.214-1.11,3.682c1.474-0.631,2.496-0.728,3.496-0.516     c1.089,0.249,1.989,0.903,2.535,1.855c0.442,0.765,0.679,1.426,0.6,2.147c1.21-0.4,1.686-0.279,2.205-0.146     c0.931,0.23,1.786,0.86,2.262,1.691c1.419,2.469-0.015,3.845-2.875,6.586c-0.612,0.588-1.316,1.262-2.089,1.995     c0.606,0.31,1.122,0.795,1.467,1.389c0.137,0.236,0.24,0.455,0.325,0.68l5.649-3.263c1.562-0.904,3.557-0.485,4.621,0.977     c0.588,0.813,0.788,1.789,0.625,2.711c0.707,0.291,1.307,0.813,1.698,1.491c1.768,3.063-0.536,5.768-6.567,11.086     c0.003,0.012,0.009,0.018,0.012,0.024c1.083,1.625,0.649,3.814-0.974,4.899C182.724,324.51,180.313,325.517,178.964,325.517z" style="fill:#CC3625;"/></g><g><path d="M114.103,220.633c-0.376,0-0.716-0.051-1.037-0.127c-1.061-0.258-1.943-0.907-2.474-1.832     c-1.88-3.257,1.328-6.013,5.767-9.836c0.837-0.716,1.771-1.498,2.802-2.347c-0.258-0.243-0.482-0.521-0.655-0.822     c-1.501-2.599,0.416-4.317,2.838-6.492c1.222-1.101,2.89-2.562,4.793-4.227c-1.522,0.57-3.281,0.027-4.2-1.379     c-1.021-1.577-0.633-3.678,0.883-4.785c0.837-0.606,1.68-1.225,2.529-1.853c-0.055-0.013-0.106-0.024-0.161-0.037     c-1.031-0.24-1.889-0.87-2.411-1.78c-0.776-1.34-0.585-3.035,0.476-4.176c2.422-2.598,4.988-5.491,7.229-8.156     c-0.907-0.243-1.683-0.834-2.156-1.649c-1.458-2.523-0.085-4.909,4.027-9.985c-0.801-0.291-1.52-0.879-1.944-1.607     c-0.973-1.692-0.397-3.848,1.295-4.824c0.452-0.264,0.937-0.412,1.425-0.458c1.247-0.64,4.167-2.547,5.652-3.515     c3.572-2.332,4.121-2.689,5.713-2.313c0.946,0.228,1.765,0.837,2.25,1.674c1.522,2.641,0.036,4.691-5.064,10.84     c0.698,0.322,1.286,0.849,1.668,1.517c0.688,1.194,1.482,2.562-1.695,7.444c10.221-6.738,12.168-7.626,14.321-7.12     c1.025,0.243,1.883,0.873,2.408,1.777c1.352,2.347,1.182,4.112-6.447,10.637c0.158,0.176,0.3,0.373,0.424,0.588     c1.425,2.468,0.137,4.588-4.214,8.845c1.398-0.352,2.929,0.188,3.784,1.45c1.037,1.534,0.709,3.605-0.737,4.748     c4.3-2.589,4.976-2.553,6.268-2.244c0.943,0.23,1.804,0.87,2.286,1.704c0.977,1.692,0.394,3.854-1.292,4.827     c-0.415,0.236-0.858,0.382-1.304,0.446c-1.943,0.958-8.466,5.167-13.772,8.596C122.478,217.665,117.089,220.633,114.103,220.633z     " style="fill:#CC3625;"/></g></g></g><g id="Layer_1"/></svg>